<svg xmlns="http://www.w3.org/2000/svg" xmlns:xlink="http://www.w3.org/1999/xlink" viewBox="0 0 237.52 236.9"><defs><style>.cls-1,.cls-2{fill:none;}.cls-1{clip-rule:evenodd;}.cls-3{clip-path:url(#clip-path);}.cls-4{clip-path:url(#clip-path-2);}.cls-5{fill:#f84971;}.cls-6{clip-path:url(#clip-path-3);}.cls-7{fill:#27c7dc;}.cls-8{clip-path:url(#clip-path-5);}.cls-9{fill:#28b56d;}.cls-10{clip-path:url(#clip-path-7);}.cls-11{fill:#fc0;}</style><clipPath id="clip-path" transform="translate(24.77 24.4)"><path class="cls-1" d="M51,19.75a2.45,2.45,0,1,1-1.73,3A2.44,2.44,0,0,1,51,19.75Zm-8.3,3.34a20.94,20.94,0,0,0,1.71,4.42c1.06,2,1.77,2.19,3.22,3.2a12.15,12.15,0,0,0,4.21,1.62c-2.62,1.09-4.88,1.26-6.8.48a4.79,4.79,0,0,1-2.55-2,7,7,0,0,1-.94-2.72A7.32,7.32,0,0,1,42.69,23.09Zm16.35-7c-.15-.55-7.35-1-13.3.82a22.06,22.06,0,0,0-9.51,6.44,42.42,42.42,0,0,0-8.6,20.84c-1.34,10.27-1.37,14.62-3.18,21.71a18.05,18.05,0,0,1-5.34,8c-4.87,4.34-10.92,7.26-8.2,7.93a16.64,16.64,0,0,0,6.49.43c3.09-.5,6-1.85,6.78-1.82,1.29,0,1.23,3.83,6.41,5.53s7,1,7,1-4.45-7.53-5.64-12,.61-9.09,1.09-10.77,5.8-9.82,7.88-12.28S49.8,43.54,55.41,38a24.26,24.26,0,0,0,6.5-12.62A27.72,27.72,0,0,0,62.17,20,10.24,10.24,0,0,1,59,19C58.47,18.54,59.31,17.1,59,16.09ZM60.52,0C63.14.14,74,16.48,80.19,31.43s15.24,49.5,9.51,51c-4.13,1.11-10.28,0-23.33,2.63a122.41,122.41,0,0,0-18.65,5c-26.1,9.53-37.13,20.32-40.67,21.26S-5.37,72.42,12.1,41.19,57.9-.13,60.52,0Z"/></clipPath><clipPath id="clip-path-2" transform="translate(24.77 24.4)"><rect class="cls-2" x="-94.4" y="-237.38" width="375" height="812"/></clipPath><clipPath id="clip-path-3" transform="translate(24.77 24.4)"><path class="cls-1" d="M133.63,38.22A3.92,3.92,0,1,1,130.86,43,3.93,3.93,0,0,1,133.63,38.22Zm-26.87-20q-3.93,11.42-2.7,19.79c1.19,8.15,5.33,17.93,5.56,18.46v0a47.94,47.94,0,0,1,6.52-1.77A5.4,5.4,0,1,1,125.62,50a5.33,5.33,0,0,1-.19,3.36,82.37,82.37,0,0,1,13.52,0C156.27,54.88,168,60.14,168,60.14s.65-5.79-5.3-14.29a6.87,6.87,0,1,1-8.16-9.17l-.1,0-.6-.53-.62-.54-.63-.53A71,71,0,0,0,127,21.31a4.9,4.9,0,1,1-9-1.85Q113.26,18.79,106.76,18.23ZM86.12,3.41a128.62,128.62,0,0,1,30.29-.07,88.86,88.86,0,0,1,25.74,7.76c27.24,13,46.87,45.76,43.89,50-.76,1.08-6.77,5.93-14.38,10.49-8.32,5-18.48,9.72-24.08,11.57-19.1,6.31-41.07,10-41.94,6.71s-.22-14.47-4.15-29.13-12.12-32-17.67-41c-5-8.16-8.1-10.07-8-13C75.83,6.08,80.09,4.15,86.12,3.41Z"/></clipPath><clipPath id="clip-path-5" transform="translate(24.77 24.4)"><path class="cls-1" d="M18,118.24l.29,1.08.17.83q2.85,13.29,7.12,21.46a58.84,58.84,0,0,0,3.09,5.31A33.72,33.72,0,0,0,35,144.7a27.53,27.53,0,0,1-4.5,4.78,38.8,38.8,0,0,0,9.37,8.21c.58.39,1.11.74,1.6,1.05a53.52,53.52,0,0,0,7-2.58,39.71,39.71,0,0,0,7.19-3.85,17,17,0,0,1-1.88,2.43,30.9,30.9,0,0,1-6.56,4.78c-.86.46-1.69.84-2.44,1.16.54.27,1,.49,1.45.68a7.92,7.92,0,0,0,4.41.69c4.05-.34,10.21-5.28,12.42-8.62s2.52-4.74,2.42-6.19a3.12,3.12,0,0,0-1.11-1.79,18.07,18.07,0,0,0-5.77-2.65,12.89,12.89,0,0,1-1.09.72,42.59,42.59,0,0,1-7.62,2.94A47.68,47.68,0,0,0,55,141.89a98,98,0,0,1-12.45-3.8,50.75,50.75,0,0,1-9.06-4.81,9.91,9.91,0,0,1-1.46.5,19.53,19.53,0,0,1-5.73.89c1.83-1.32,3.3-2.45,4.39-3.38-.67-.52-1.24-1-1.7-1.4A92.86,92.86,0,0,1,18,118.24ZM84.3,149.3a40.19,40.19,0,0,1-8.08,5.06,91.18,91.18,0,0,1-9.77,3.07c-.22.06-.21.51,0,1.36q4.35-.81,6.59-1.41a25.47,25.47,0,0,0,5.65-2.29,13.34,13.34,0,0,0,3.67-2.74A25.84,25.84,0,0,0,84.3,149.3ZM60.7,159.48l-1.08,1.9q10,5.9,16.23,7.52a27.78,27.78,0,0,0,8.18.62,63.55,63.55,0,0,0,10-1.46s-6-.26-9.75-.67A11,11,0,0,1,80,165.84S84.1,164,86.6,163a17.93,17.93,0,0,0,6.2-4.43s-3.67,1.57-6,2.26a56.92,56.92,0,0,1-9.12,1.79c-4.53.56-9.16.1-10.94-.52A41.68,41.68,0,0,1,60.7,159.48ZM82.88,97.29c.38,1.42-1.06,14.19,3.94,32.87,3,11,9.54,24.14,14.22,32.46,5.48,9.72,10.82,16.43,11,17.16.36,1.35,1.45,1.84-2.41,2.87S73,190.8,46.93,177.12c-11.24-5.89-21.67-13-29.95-22.77C6.73,142.29.68,130.08,0,127.66c-1-3.58,22.42-16.46,36-21.78C61,96.1,82.5,95.88,82.88,97.29Z"/></clipPath><clipPath id="clip-path-7" transform="translate(24.77 24.4)"><path class="cls-1" d="M157.41,123.35c-.62.16-3.1-1.92-7.54,0a18.64,18.64,0,0,0-6.49,4.27c4.59,0,7.11-.07,7.58-.12C154.58,127.13,158,123.18,157.41,123.35Zm-14.62,8.1a18.72,18.72,0,0,0-7.08,3.21q6.79,1,7.5,1.06c3.64.17,7.68-3.19,7-3.12S147.48,130.22,142.79,131.45Zm-8,6.79a18.51,18.51,0,0,0-7.24,2.83c4.49.92,7,1.41,7.44,1.45,3.62.36,7.83-2.78,7.18-2.75S139.55,137.25,134.81,138.24Zm-7,6.63a15.91,15.91,0,0,0-6.46,1.92q5.7,1.71,6.3,1.83c3.1.59,7-1.83,6.4-1.85S132,144.37,127.81,144.87Zm46.07-56.54v.06a95.6,95.6,0,0,1-4,18,105.18,105.18,0,0,1-6.72,14.29A74.16,74.16,0,0,1,157,129q-4.75,6.32-19.4,18.24,11.25-6.5,15.78-10.18a81.67,81.67,0,0,0,10.35-10.66,33,33,0,0,0,5.08-8.46,45,45,0,0,0,3.72-12.33,122.32,122.32,0,0,0,1.31-17.3ZM161,134.53q-.15.69-.89,7.57a17.56,17.56,0,0,0,5.25-5.84c2.54-4.14.54-6.95.78-7.55S161.82,131,161,134.53Zm-39.39,16.26a15.87,15.87,0,0,0-6.35,2.25q5.79,1.41,6.39,1.5c3.13.42,6.86-2.2,6.3-2.19S125.77,150.07,121.64,150.79ZM152.38,144c-.1.45-.39,3-.88,7.57a17.75,17.75,0,0,0,5.24-5.84c2.54-4.14.55-6.95.79-7.55S153.18,140.39,152.38,144Zm-10,7.63q-.21.67-1.41,7.49a17.87,17.87,0,0,0,5.64-5.46c2.82-4,1-6.89,1.31-7.47S143.39,148.09,142.35,151.59Zm-20.19,7.61q-.39.53-3.63,6.14a15.63,15.63,0,0,0,6.85-2.73c3.81-2.46,3.1-5.76,3.54-6.17S124.21,156.47,122.16,159.2Zm9.91-3c-.16.4-.81,2.7-1.92,6.87a15.65,15.65,0,0,0,5.91-4.41c3.05-3.36,1.5-6.37,1.82-6.88S133.34,153,132.07,156.19ZM180.8,75.78c.34-.09,2.09-1.59,4.08,11a89,89,0,0,1-1.17,34.13c-.83,3.86-4.92,16-12.21,28.17a92.63,92.63,0,0,1-8.65,12.28,105.14,105.14,0,0,1-17.58,16.53c-8.65,6.29-16.28,9.57-17.81,9.45-5-.4-17.55-22.78-23.39-39.79S93,108.06,96.47,105.71c1.53-1,7-1.12,11.67-1.73a166.84,166.84,0,0,0,21-4c9.48-2.1,18.29-5.58,29-10.79S180.46,75.87,180.8,75.78Z"/></clipPath></defs><g id="Capa_2" data-name="Capa 2"><g id="Capa_1-2" data-name="Capa 1"><g class="cls-3"><g class="cls-4"><rect class="cls-5" x="-13.1" y="2.32" width="104.02" height="103.86" transform="translate(12.05 36.32) rotate(-15)"/></g></g><g class="cls-6"><g class="cls-4"><rect class="cls-7" x="80.93" y="-12.79" width="103.4" height="103.66" transform="translate(19.18 60.06) rotate(-15)"/></g></g><g class="cls-8"><g class="cls-4"><rect class="cls-9" x="2.33" y="96.6" width="104.82" height="104.11" transform="translate(-11.84 43.63) rotate(-15)"/></g></g><g class="cls-10"><g class="cls-4"><rect class="cls-11" x="96.3" y="81.03" width="104.77" height="104.06" transform="translate(-4.6 67.42) rotate(-15)"/></g></g></g></g></svg>